<?xml version="1.0" encoding="utf-8"?>
<!-- Generator: Adobe Illustrator 19.1.0, SVG Export Plug-In . SVG Version: 6.00 Build 0)  -->
<!DOCTYPE svg PUBLIC "-//W3C//DTD SVG 1.1//EN" "http://www.w3.org/Graphics/SVG/1.1/DTD/svg11.dtd">
<svg version="1.1" id="YouTube_Icon" xmlns="http://www.w3.org/2000/svg" xmlns:xlink="http://www.w3.org/1999/xlink" x="0px"
	 y="0px" viewBox="0 0 500 432" enable-background="new 0 0 500 432" xml:space="preserve">
<g>
	<g>
		<g>
			<line fill="#FFFFFF" x1="245" y1="48.8" x2="255" y2="48.8"/>
		</g>
	</g>
	<g>
		<path fill="#FFFFFF" d="M436.1,346"/>
		<path fill="#FFFFFF" d="M63.9,346"/>
		<path fill="#FFFFFF" d="M436.1,346"/>
		<path fill="#FFFFFF" d="M436.1,346"/>
		<path fill="#FFFFFF" d="M53.9,354.4"/>
		<path fill="#FFFFFF" d="M53.9,354.4"/>
		<path fill="#FFFFFF" d="M446.1,354.4"/>
		<path fill="#FFFFFF" d="M446.1,354.4"/>
		<path fill="#FFFFFF" d="M446.1,354.4"/>
		<path fill="#FFFFFF" d="M436.1,346"/>
		<path fill="#FFFFFF" d="M63.9,346"/>
		<path fill="#FFFFFF" d="M63.9,346"/>
		<path fill="#FFFFFF" d="M63.9,346"/>
		<path fill="#FFFFFF" d="M53.9,354.4"/>
		<line fill="#FFFFFF" x1="63.9" y1="346" x2="53.9" y2="354.4"/>
		<line fill="#FFFFFF" x1="255" y1="48.8" x2="245" y2="48.8"/>
		<line fill="#FFFFFF" x1="446.1" y1="354.4" x2="436.1" y2="346"/>
	</g>
	<g>
		<g>
			<defs>
				<path id="SVGID_1_" d="M410.9,237.9c5.8,0,10.5-5.7,10.5-12.6c0-7-4.7-12.6-10.5-12.6c-5.8,0-10.5,5.7-10.5,12.6
					C400.4,232.2,405.1,237.9,410.9,237.9z"/>
			</defs>
			<use xlink:href="#SVGID_1_"  overflow="visible" fill="#FFFFFF"/>
			<clipPath id="SVGID_2_">
				<use xlink:href="#SVGID_1_"  overflow="visible"/>
			</clipPath>
			<path clip-path="url(#SVGID_2_)" fill="#FFFFFF" d="M400.4,212.6v25.3V212.6z"/>
			<rect x="400.4" y="212.6" clip-path="url(#SVGID_2_)" fill="#FFFFFF" width="21" height="25.3"/>
			<path clip-path="url(#SVGID_2_)" fill="#FFFFFF" d="M421.4,237.9v-25.3V237.9z"/>
		</g>
	</g>
	<polyline fill="#FFFFFF" points="436.1,346 250,378.1 250,378.1 436.1,346 	"/>
	<polygon fill="#FFFFFF" points="250,383.3 250.8,388.1 250.9,388.1 250,383.2 	"/>
	<polyline fill="#FFFFFF" points="53.9,354.4 249.1,388.1 249.1,388.1 53.9,354.4 	"/>
	<polyline fill="#FFFFFF" points="446.1,354.4 250.9,388.1 250.9,388.1 446.1,354.4 	"/>
	<polyline fill="#FFFFFF" points="63.9,346 250,378.1 250,378.1 63.9,346 	"/>
	<polygon fill="#FFFFFF" points="249.1,388.1 249.2,388.1 250,383.3 250,383.2 	"/>
	<polygon fill="#FFFFFF" points="250,383.2 250,383.2 250,383.3 250,383.2 	"/>
	<polygon fill="#FFFFFF" points="250,383.2 250,383.2 250,383.3 250,383.2 	"/>
	<polygon fill="#FFFFFF" points="250,378.1 250,378.2 250,378.1 250,378.1 	"/>
	<polygon fill="#FFFFFF" points="250,378.1 250,378.2 250,378.1 250,378.1 	"/>
	<polygon fill="#FFFFFF" points="250,378.2 250,378.1 249.1,378.3 250,383.2 250,383.2 249.2,378.3 	"/>
	<polygon fill="#FFFFFF" points="250,378.2 250,378.1 249.1,378.3 250,383.2 250,383.2 249.2,378.3 	"/>
	<polygon fill="#FFFFFF" points="250,378.2 250,378.1 249.1,378.3 250,383.2 250,383.2 249.2,378.3 	"/>
	<polygon fill="#FFFFFF" points="250.8,378.3 250,383.2 250,383.2 250.9,378.3 250,378.1 250,378.2 	"/>
	<polygon fill="#FFFFFF" points="250.8,378.3 250,383.2 250,383.2 250.9,378.3 250,378.1 250,378.2 	"/>
	<polygon fill="#FFFFFF" points="250.8,378.3 250,383.2 250,383.2 250.9,378.3 250,378.1 250,378.2 	"/>
	<polygon fill="#FFFFFF" points="250,378.2 249.2,378.3 250,383.2 250.8,378.3 	"/>
	<polygon fill="#FFFFFF" points="250,378.2 249.2,378.3 250,383.2 250.8,378.3 	"/>
	<polygon fill="#FFFFFF" points="250,378.2 249.2,378.3 250,383.2 250.8,378.3 	"/>
	<polygon fill="#FFFFFF" points="250,378.2 249.2,378.3 250,383.2 250.8,378.3 	"/>
	<g>
		<g>
			<g>
				<defs>
					<path id="SVGID_3_" d="M147.2,201.7L161,202c5.4,0.1,9.7-2.1,12.7-6.7c3.1-4.7,4.6-11.2,4.6-19.6c0-6.6-1.4-12.1-4.1-16.5
						c-2.7-4.3-6.6-6.3-11.7-6c-3.9,0.3-7.3,2.2-10.2,5.9c-2.9,3.6-4.3,8.1-4.3,13.6l-26.4,0.8l-0.2-0.8c-0.3-15,3.2-27.5,10.7-37.7
						c7.7-10.5,17.4-16.6,29.2-18.1c14.4-1.9,26.5,1.8,35.9,11.5c9.7,10,14.7,25.2,14.7,45.5c0,10.1-2.2,19.4-6.5,27.7
						c-4.2,8.3-9.8,14.5-16.6,18.8c7.8,4.7,14,11.6,18.5,20.8c4.6,9.3,7,20.3,7,32.7c0,20.4-5.4,35.4-15.9,44.7
						c-10.2,9-22.6,11.4-37.1,7.8c-11.9-3-21.9-10.3-30.1-21.8c-8-11.1-11.8-25.3-11.5-42.8l0.2-0.8l26.4,3.8
						c0,6.3,1.5,11.9,4.6,16.8c3.1,4.9,7,7.8,11.6,8.7c5.4,1,9.7-0.6,13-4.8c3.3-4.2,5-10,5-17.4c0-10.2-1.8-17.9-5.2-22.9
						c-3.4-5-8.2-7.7-14.3-8.2l-13.8-1.2V201.7z"/>
				</defs>
				<use xlink:href="#SVGID_3_"  overflow="visible" fill="#FFFFFF"/>
				<clipPath id="SVGID_4_">
					<use xlink:href="#SVGID_3_"  overflow="visible"/>
				</clipPath>
				<rect x="119.5" y="115.1" clip-path="url(#SVGID_4_)" fill="#FFFFFF" width="0.2" height="215"/>
				<rect x="119.7" y="115.1" clip-path="url(#SVGID_4_)" fill="#FFFFFF" width="94.8" height="215"/>
				<path clip-path="url(#SVGID_4_)" fill="#FFFFFF" d="M214.5,330.1v-215V330.1z"/>
			</g>
		</g>
	</g>
	<g>
		<g>
			<defs>
				<path id="SVGID_5_" d="M290.5,334V118.6l50.3,6.2c14.6,1.8,26.1,10.4,35.1,25.4c8.6,14.5,12.8,32.4,12.8,53.8v32.2
					c0,21.6-4.2,39.9-12.8,55.5c-8.9,16.1-20.5,26.2-35.1,29.8L290.5,334z M323.9,159v130.5l14.8-2.7c7.8-1.4,13.7-6.6,17.9-15.4
					c4.1-8.7,6.2-19.5,6.2-32.6v-34.2c0-13-2-23.6-6.2-31.7c-4.2-8.2-10.1-12.6-17.9-13.1L323.9,159z"/>
			</defs>
			<use xlink:href="#SVGID_5_"  overflow="visible" fill="#FFFFFF"/>
			<clipPath id="SVGID_6_">
				<use xlink:href="#SVGID_5_"  overflow="visible"/>
			</clipPath>
			<rect x="323.9" y="159" clip-path="url(#SVGID_6_)" fill="#FFFFFF" width="38.9" height="130.5"/>
			<path clip-path="url(#SVGID_6_)" fill="#FFFFFF" d="M290.5,118.6V334V118.6z"/>
			<rect x="290.5" y="118.6" clip-path="url(#SVGID_6_)" fill="#FFFFFF" width="98.2" height="215.4"/>
			<path clip-path="url(#SVGID_6_)" fill="#FFFFFF" d="M388.7,334V118.6V334z"/>
		</g>
	</g>
	<g>
		<g>
			<defs>
				<path id="SVGID_7_" d="M89.1,237.9c-5.8,0-10.5-5.7-10.5-12.6c0-7,4.7-12.6,10.5-12.6c5.8,0,10.5,5.7,10.5,12.6
					C99.6,232.2,94.9,237.9,89.1,237.9z"/>
			</defs>
			<use xlink:href="#SVGID_7_"  overflow="visible" fill="#FFFFFF"/>
			<clipPath id="SVGID_8_">
				<use xlink:href="#SVGID_7_"  overflow="visible"/>
			</clipPath>
			<rect x="78.6" y="212.6" clip-path="url(#SVGID_8_)" fill="#FFFFFF" width="0" height="25.3"/>
			<rect x="78.6" y="212.6" clip-path="url(#SVGID_8_)" fill="#FFFFFF" width="21" height="25.3"/>
			<rect x="99.6" y="212.6" clip-path="url(#SVGID_8_)" fill="#FFFFFF" width="0" height="25.3"/>
		</g>
	</g>
	<path fill="#FFFFFF" d="M255,44.6L255,44.6l-4-0.7l-0.9-0.2l0,0l0,0l-0.9,0.2l-4,0.7l0,0l-191.1,33v276.9h0l190.9,33l0,0l5.2,0.9
		l5.4-0.9l0,0l190.6-32.9h0V77.5L255,44.6z M63.9,346L63.9,346l0-260.1L245,54.7v315.9l-0.1,6.7L63.9,346z M255,377.3v-6.7V54.7
		L436.1,86V346h0L255,377.3z"/>
</g>
</svg>
