<?xml version="1.0" encoding="UTF-8" standalone="no"?>
<svg width="68px" height="68px" viewBox="0 0 68 68" version="1.1" xmlns="http://www.w3.org/2000/svg" xmlns:xlink="http://www.w3.org/1999/xlink" xmlns:sketch="http://www.bohemiancoding.com/sketch/ns">
    <!-- Generator: bin/sketchtool 1.4 (305) - http://www.bohemiancoding.com/sketch -->
    <title>iconVideoPlan</title>
    <desc>Created with bin/sketchtool.</desc>
    <defs></defs>
    <g id="Page-1" stroke="none" stroke-width="1" fill="none" fill-rule="evenodd" sketch:type="MSPage">
        <g id="Desktop-HD" sketch:type="MSArtboardGroup" transform="translate(-686.000000, -860.000000)" fill="#FFFFFF">
            <g id="iconVideoPlan" sketch:type="MSLayerGroup" transform="translate(720.000000, 894.000000) rotate(-90.000000) translate(-720.000000, -894.000000) translate(686.000000, 860.000000)">
                <path d="M50.9701881,4.7253066 C45.7894768,1.70214431 40.1338128,0.190833333 33.999414,0.190833333 C27.8655555,0.190833333 22.2082706,1.70214431 17.0286399,4.7253066 C11.8484689,7.74792855 7.74734255,11.8490549 4.72418026,17.0292259 C1.70047764,22.2093969 0.189166667,27.8666818 0.189166667,34 C0.189166667,40.1338585 1.70101798,45.7900628 4.72363993,50.9707741 C7.74680222,56.1498645 11.8479285,60.2515311 17.0280996,63.2746934 C22.2082706,66.2978557 27.8650152,67.8091667 33.9988737,67.8091667 C40.1327322,67.8091667 45.7900171,66.2978557 50.9696478,63.2746934 C56.1492785,60.2520714 60.2504048,56.1504048 63.2735671,50.9707741 C66.296189,45.7906031 67.8075,40.1333182 67.8075,34 C67.8075,27.8661415 66.296189,22.2088566 63.2741074,17.0292259 C60.2509451,11.8495952 56.1498188,7.74846889 50.9701881,4.7253066 Z M35.9797339,48.9412887 C35.4226507,49.4983719 34.7618236,49.777724 33.9988737,49.777724 C33.2359237,49.777724 32.5756369,49.4983719 32.0180134,48.9412887 L12.0316417,28.954917 C11.4740182,28.3972935 11.1952065,27.7370068 11.1952065,26.9740568 C11.1952065,26.2111068 11.6229004,24.9926562 14.2591798,24.9926562 L53.9018074,24.9926562 C56.1078659,24.9926562 56.8030812,26.2111068 56.8030812,26.9740568 C56.8025409,27.7370068 56.5242695,28.3972935 55.9655653,28.954917 L35.9797339,48.9412887 Z" id="Shape" sketch:type="MSShapeGroup"></path>
            </g>
        </g>
    </g>
</svg>